<?xml version="1.0" encoding="iso-8859-1"?>
<!-- Generator: Adobe Illustrator 16.0.0, SVG Export Plug-In . SVG Version: 6.00 Build 0)  -->
<!DOCTYPE svg PUBLIC "-//W3C//DTD SVG 1.1//EN" "http://www.w3.org/Graphics/SVG/1.1/DTD/svg11.dtd">
<svg version="1.1" id="Capa_1" xmlns="http://www.w3.org/2000/svg" xmlns:xlink="http://www.w3.org/1999/xlink" x="0px" y="0px"
	 width="567.63px" height="567.63px" viewBox="0 0 567.63 567.63" style="enable-background:new 0 0 567.63 567.63;"
	 xml:space="preserve">
<g>
	<g>
		<path d="M552.33,119.723H360.768c-8.448,0-20.064-4.92-25.939-10.995l-24.621-25.441c-5.875-6.071-17.49-10.995-25.939-10.995
			H120.105c-19.027,0-34.425,15.398-34.425,34.425v50.49h112.908c12.622,0,28.155,6.582,36.934,15.655l24.618,25.441
			c2.98,3.079,10.664,6.334,14.945,6.334h191.565c16.873,0,30.601,13.727,30.601,30.6v159.885h35.955
			c19.026,0,34.425-15.398,34.425-34.425V135.022C567.63,126.574,560.778,119.723,552.33,119.723z"/>
		<path d="M466.649,219.938H275.088c-8.449,0-20.064-4.923-25.94-10.995l-24.621-25.441c-5.875-6.071-17.488-10.995-25.939-10.995
			H85.68H34.425C15.398,172.507,0,187.905,0,206.933v253.98c0,19.027,15.398,34.425,34.425,34.425h413.1
			c19.027,0,34.426-15.397,34.426-34.425v-65.79V235.237C481.95,226.789,475.099,219.938,466.649,219.938z"/>
	</g>
</g>
<g>
</g>
<g>
</g>
<g>
</g>
<g>
</g>
<g>
</g>
<g>
</g>
<g>
</g>
<g>
</g>
<g>
</g>
<g>
</g>
<g>
</g>
<g>
</g>
<g>
</g>
<g>
</g>
<g>
</g>
</svg>
